<mxfile host="app.diagrams.net" agent="Mozilla/5.0 (X11; Linux x86_64) AppleWebKit/537.36 (KHTML, like Gecko) Chrome/125.0.0.0 Safari/537.36" version="24.9.1">
  <diagram name="第 1 页" id="kxdsgJ4xXSdfHhP7iqdU">
    <mxGraphModel dx="823" dy="413" grid="1" gridSize="10" guides="1" tooltips="1" connect="1" arrows="1" fold="1" page="1" pageScale="1" pageWidth="827" pageHeight="1169" math="0" shadow="0">
      <root>
        <mxCell id="0" />
        <mxCell id="1" parent="0" />
        <mxCell id="-y7Y4IlDmgTwKsSBanf7-20" style="edgeStyle=orthogonalEdgeStyle;rounded=0;orthogonalLoop=1;jettySize=auto;html=1;exitX=0.5;exitY=0;exitDx=0;exitDy=0;entryX=0.5;entryY=1;entryDx=0;entryDy=0;" edge="1" parent="1" source="-y7Y4IlDmgTwKsSBanf7-1" target="-y7Y4IlDmgTwKsSBanf7-19">
          <mxGeometry relative="1" as="geometry" />
        </mxCell>
        <mxCell id="-y7Y4IlDmgTwKsSBanf7-1" value="Language Model" style="rounded=1;whiteSpace=wrap;html=1;fillColor=#dae8fc;strokeColor=#6c8ebf;" vertex="1" parent="1">
          <mxGeometry x="210" y="260" width="220" height="50" as="geometry" />
        </mxCell>
        <mxCell id="-y7Y4IlDmgTwKsSBanf7-2" value="Visual encoder" style="rounded=1;whiteSpace=wrap;html=1;fillColor=#f8cecc;strokeColor=#b85450;" vertex="1" parent="1">
          <mxGeometry x="210" y="330" width="100" height="30" as="geometry" />
        </mxCell>
        <mxCell id="-y7Y4IlDmgTwKsSBanf7-18" style="edgeStyle=orthogonalEdgeStyle;rounded=0;orthogonalLoop=1;jettySize=auto;html=1;exitX=0.75;exitY=0;exitDx=0;exitDy=0;entryX=0.5;entryY=1;entryDx=0;entryDy=0;" edge="1" parent="1" source="-y7Y4IlDmgTwKsSBanf7-3" target="-y7Y4IlDmgTwKsSBanf7-2">
          <mxGeometry relative="1" as="geometry" />
        </mxCell>
        <mxCell id="-y7Y4IlDmgTwKsSBanf7-3" value="" style="rounded=0;whiteSpace=wrap;html=1;fillColor=#ffe6cc;strokeColor=#d79b00;" vertex="1" parent="1">
          <mxGeometry x="225" y="380" width="50" height="40" as="geometry" />
        </mxCell>
        <mxCell id="-y7Y4IlDmgTwKsSBanf7-4" value="" style="rounded=0;whiteSpace=wrap;html=1;fillColor=#ffe6cc;strokeColor=#d79b00;" vertex="1" parent="1">
          <mxGeometry x="235" y="390" width="50" height="40" as="geometry" />
        </mxCell>
        <mxCell id="-y7Y4IlDmgTwKsSBanf7-5" value="images" style="rounded=0;whiteSpace=wrap;html=1;fillColor=#ffe6cc;strokeColor=#d79b00;" vertex="1" parent="1">
          <mxGeometry x="245" y="400" width="50" height="40" as="geometry" />
        </mxCell>
        <mxCell id="-y7Y4IlDmgTwKsSBanf7-13" value="" style="rounded=0;whiteSpace=wrap;html=1;" vertex="1" parent="1">
          <mxGeometry x="343" y="380" width="50" height="40" as="geometry" />
        </mxCell>
        <mxCell id="-y7Y4IlDmgTwKsSBanf7-14" value="" style="rounded=0;whiteSpace=wrap;html=1;" vertex="1" parent="1">
          <mxGeometry x="353" y="390" width="50" height="40" as="geometry" />
        </mxCell>
        <mxCell id="-y7Y4IlDmgTwKsSBanf7-15" value="text" style="rounded=0;whiteSpace=wrap;html=1;" vertex="1" parent="1">
          <mxGeometry x="363" y="400" width="50" height="40" as="geometry" />
        </mxCell>
        <mxCell id="-y7Y4IlDmgTwKsSBanf7-16" style="edgeStyle=orthogonalEdgeStyle;rounded=0;orthogonalLoop=1;jettySize=auto;html=1;exitX=0.5;exitY=0;exitDx=0;exitDy=0;entryX=0.232;entryY=0.994;entryDx=0;entryDy=0;entryPerimeter=0;" edge="1" parent="1" source="-y7Y4IlDmgTwKsSBanf7-2" target="-y7Y4IlDmgTwKsSBanf7-1">
          <mxGeometry relative="1" as="geometry" />
        </mxCell>
        <mxCell id="-y7Y4IlDmgTwKsSBanf7-17" style="edgeStyle=orthogonalEdgeStyle;rounded=0;orthogonalLoop=1;jettySize=auto;html=1;exitX=0.5;exitY=0;exitDx=0;exitDy=0;entryX=0.72;entryY=1.03;entryDx=0;entryDy=0;entryPerimeter=0;" edge="1" parent="1" source="-y7Y4IlDmgTwKsSBanf7-13" target="-y7Y4IlDmgTwKsSBanf7-1">
          <mxGeometry relative="1" as="geometry" />
        </mxCell>
        <mxCell id="-y7Y4IlDmgTwKsSBanf7-19" value="embedding" style="text;html=1;align=center;verticalAlign=middle;whiteSpace=wrap;rounded=0;" vertex="1" parent="1">
          <mxGeometry x="266.5" y="210" width="107" height="30" as="geometry" />
        </mxCell>
      </root>
    </mxGraphModel>
  </diagram>
</mxfile>
